HIERARCHY
ROOT Hips
{
	OFFSET -3.958830 18.904000 13.208200
	CHANNELS 6 Xposition Yposition Zposition Zrotation Yrotation Xrotation 
	JOINT LHipJoint
	{
		OFFSET 0.000000 0.000000 0.000000
		CHANNELS 3 Zrotation Yrotation Xrotation
		JOINT LeftUpLeg
		{
			OFFSET 1.800000 -1.400000 0.085000
			CHANNELS 3 Zrotation Yrotation Xrotation
			JOINT LeftLeg
			{
				OFFSET 2.215000 -6.000000 0.000000
				CHANNELS 3 Zrotation Yrotation Xrotation
				JOINT LeftFoot
				{
					OFFSET 2.500000 -6.900000 0.000000
					CHANNELS 3 Zrotation Yrotation Xrotation
					JOINT LeftToeBase
					{
						OFFSET 0.200000 -0.500000 1.950000
						CHANNELS 3 Zrotation Yrotation Xrotation
						End Site
						{
							OFFSET 0.000000 0.000000 0.000000
						}
					}
				}
			}
		}
	}
	JOINT RHipJoint
	{
		OFFSET 0.000000 0.000000 0.000000
		CHANNELS 3 Zrotation Yrotation Xrotation
		JOINT RightUpLeg
		{
			OFFSET -1.800000 -1.400000 0.085000
			CHANNELS 3 Zrotation Yrotation Xrotation
			JOINT RightLeg
			{
				OFFSET -2.215000 -6.000000 0.000000
				CHANNELS 3 Zrotation Yrotation Xrotation
				JOINT RightFoot
				{
					OFFSET -2.500000 -6.900000 0.000000
					CHANNELS 3 Zrotation Yrotation Xrotation
					JOINT RightToeBase
					{
						OFFSET -0.200000 -0.500000 1.950000
						CHANNELS 3 Zrotation Yrotation Xrotation
						End Site
						{
							OFFSET 0.000000 0.000000 0.000000
						}
					}
				}
			}
		}
	}
	JOINT LowerBack
	{
		OFFSET 0.000000 0.000000 0.000000
		CHANNELS 3 Zrotation Yrotation Xrotation
		JOINT Spine
		{
			OFFSET -0.087000 1.940000 -0.288900
			CHANNELS 3 Zrotation Yrotation Xrotation
			JOINT Spine1
			{
				OFFSET 0.000000 1.950000 0.060000
				CHANNELS 3 Zrotation Yrotation Xrotation
				JOINT Neck
				{
					OFFSET 0.000000 0.000000 0.000000
					CHANNELS 3 Zrotation Yrotation Xrotation
					JOINT Neck1
					{
						OFFSET 0.000000 1.600000 0.340000
						CHANNELS 3 Zrotation Yrotation Xrotation
						JOINT Head
						{
							OFFSET 0.000000 1.667000 -0.240000
							CHANNELS 3 Zrotation Yrotation Xrotation
							End Site
							{
								OFFSET 0.000000 0.000000 0.000000
							}
						}
					}
				}
				JOINT LeftShoulder
				{
					OFFSET 0.000000 0.000000 0.000000
					CHANNELS 3 Zrotation Yrotation Xrotation
					JOINT LeftArm
					{
						OFFSET 2.700000 1.550000 -0.730000
						CHANNELS 3 Zrotation Yrotation Xrotation
						JOINT LeftForeArm
						{
							OFFSET 5.450000 0.000000 0.000000
							CHANNELS 3 Zrotation Yrotation Xrotation
							JOINT LeftHand
							{
								OFFSET 3.450000 0.000000 0.000000
								CHANNELS 3 Zrotation Yrotation Xrotation
								JOINT LeftHandIndex1
								{
									OFFSET 0.750000 0.000000 0.000000
									CHANNELS 3 Zrotation Yrotation Xrotation
									End Site
									{
										OFFSET 0.000000 0.000000 0.000000
									}
								}
							}
						}
					}
				}
				JOINT RightShoulder
				{
					OFFSET 0.000000 0.000000 0.000000
					CHANNELS 3 Zrotation Yrotation Xrotation
					JOINT RightArm
					{
						OFFSET -2.700000 1.550000 -0.730000
						CHANNELS 3 Zrotation Yrotation Xrotation
						JOINT RightForeArm
						{
							OFFSET -5.450000 0.000000 0.000000
							CHANNELS 3 Zrotation Yrotation Xrotation
							JOINT RightHand
							{
								OFFSET -3.450000 0.000000 0.000000
								CHANNELS 3 Zrotation Yrotation Xrotation
								JOINT RightHandIndex1
								{
									OFFSET -0.750000 0.000000 0.000000
									CHANNELS 3 Zrotation Yrotation Xrotation
									End Site
									{
										OFFSET 0.000000 0.000000 0.000000
									}
								}
							}
						}
					}
				}
			}
		}
	}
}
MOTION
Frames: 12
Frame Time: 0.016667
1.007010 17.596110 -4.844700 -9.936017 14.401312 -3.622460 -14.964785 12.740066 1.944757 6.395711 -0.965214 -11.951214 -1.804932 5.722824 21.021537 -0.828962 4.674345 3.142041 0.417920 -0.078400 0.479620 18.577821 -10.580428 4.271761 -0.859776 10.375080 -35.623153 5.453519 -11.416472 51.751046 -1.092269 -8.014352 1.663302 0.122490 0.369070 0.381310 -4.580714 0.170706 -7.706728 19.958631 1.192689 14.960932 -1.770085 2.513894 9.788685 2.787582 8.502209 -11.655026 14.633811 -10.337448 23.783478 -6.705090 -0.880280 -13.216340 -13.653368 -16.027205 4.777857 -19.036340 -11.368551 1.743992 -141.125701 -66.193919 116.043671 -3.931394 3.038411 0.642710 0.338110 -0.095900 0.158690 7.433161 9.402441 8.750473 43.107688 5.156359 -3.490632 128.349693 61.053522 83.121005 1.975179 -1.482456 -0.363570 0.255760 0.025730 -0.381160 
1.006960 17.581700 -4.843750 -9.827442 15.018357 -3.252954 -14.985083 12.788231 1.987832 6.100707 -1.057245 -12.200836 -1.534319 5.493203 20.510453 -0.904512 4.619454 3.168917 0.424230 -0.069550 0.476860 18.548161 -10.653270 4.141076 -0.416575 9.638298 -35.360400 4.639931 -10.075666 47.925108 -0.882477 -7.216601 1.907192 0.162260 0.408710 0.382560 -4.530178 0.137282 -7.589680 19.123086 1.014296 14.079836 -1.315864 1.980038 9.891426 2.853703 8.836133 -11.221706 15.310660 -9.898049 22.804034 -6.991450 -0.491050 -12.954040 -14.287660 -15.793042 4.384260 -16.923254 -11.336850 1.925880 -144.448876 -67.151268 122.450682 -3.958984 3.034070 0.625220 0.379230 -0.130380 0.159810 8.098077 8.726530 8.286851 42.165513 5.791143 -3.251881 130.783537 62.480921 88.763520 1.896142 -1.398495 -0.393020 0.281340 0.043100 -0.389580 
1.015650 17.525820 -4.802790 -9.723349 16.492204 -1.663756 -15.025254 12.822155 2.081786 5.552796 -1.291302 -12.886505 -1.371124 4.973689 18.407055 -1.023345 4.431008 3.273636 0.449970 -0.032460 0.459530 18.501459 -10.793661 3.836961 0.503177 8.001834 -34.634232 3.434686 -7.462558 38.171067 -0.417097 -5.435484 2.482243 0.259440 0.520340 0.412870 -4.443115 0.141142 -7.267010 17.442191 0.806848 9.989953 0.204668 0.647261 10.419849 2.882964 8.993967 -10.478498 15.742796 -9.527909 20.672624 -8.923630 -0.298600 -9.052440 -14.560091 -14.837907 3.559858 -14.615382 -12.748048 3.590811 -149.471766 -68.811688 132.954776 -4.063179 3.116960 0.487900 0.518270 -0.242400 0.189720 8.702504 7.210559 7.688835 40.978518 6.468589 -2.702140 141.816782 65.809865 109.623037 1.584971 -1.455339 -0.414690 0.291080 0.054660 -0.371510 
1.030760 17.421690 -4.746490 -8.860777 18.597538 0.681611 -15.114490 12.780721 2.140433 4.632417 -1.456197 -12.556947 -1.707827 4.568848 15.810939 -1.100715 4.322375 3.352930 0.559780 0.134090 0.432850 18.445541 -10.771349 3.571068 -0.265911 6.575199 -34.952476 3.431487 -5.476940 27.581977 -0.034807 -3.945114 2.971710 0.444560 0.661060 0.498950 -4.245586 0.043608 -6.868250 14.084214 0.533687 4.692433 2.211471 -0.986037 10.863356 2.814380 9.206504 -9.343334 16.285675 -8.866210 18.031589 -10.128860 -0.290880 -4.458970 -14.074816 -13.091899 2.107074 -11.975028 -15.479214 5.561589 -153.142194 -71.965084 142.776061 -4.214169 3.322227 0.246190 0.717930 -0.378040 0.267870 8.951822 4.859043 6.811374 40.288399 8.160877 -0.365049 159.802469 69.499084 140.151079 1.224831 -1.993032 -0.372510 0.253060 0.026420 -0.307840 
1.035660 17.311620 -4.702660 -7.665584 19.116784 2.354919 -15.201517 12.783479 2.217143 3.709098 -1.441760 -11.778403 -2.860742 4.669371 14.357969 -1.160757 4.493493 3.356599 0.575480 0.172440 0.408690 18.384092 -10.659351 3.361965 -0.810947 5.410902 -33.220785 3.453433 -3.521938 15.448828 0.242958 -2.758312 3.416261 0.560870 0.813440 0.524080 -3.999346 -0.242744 -6.649244 10.838919 0.207684 1.653901 3.886612 -1.959920 10.857039 2.564897 9.024637 -8.541537 15.969289 -8.239953 16.643570 -11.196760 -0.338090 -1.751840 -12.843597 -11.784930 0.848408 -9.775107 -17.144038 6.120234 -149.409691 -76.678827 142.863201 -4.366967 3.272547 0.094560 0.881550 -0.506220 0.301050 8.594092 3.602127 6.276345 39.521130 10.346897 2.166982 176.237968 72.036979 164.696997 1.098819 -2.377121 -0.417130 0.302920 0.046430 -0.284230 
1.044670 17.197560 -4.673620 -6.712234 18.329966 3.349000 -15.246617 12.719701 2.218356 2.651907 -1.236236 -10.365783 -3.465785 4.683803 12.993332 -1.100889 4.569190 3.393010 0.566540 0.172820 0.337550 18.385343 -10.432160 3.352115 -1.387832 4.938662 -31.667782 3.488296 -2.201316 5.861061 0.346351 -2.420274 3.588508 0.591160 0.917550 0.523480 -3.882684 -0.498217 -6.606726 8.539763 -0.194301 0.117108 5.364862 -2.670598 10.515067 1.765756 8.683871 -8.001125 15.164219 -7.187871 17.137994 -10.164130 -0.784580 0.973390 -10.568549 -11.280937 -0.222225 -7.113179 -18.507652 5.882576 -118.481834 -78.704156 109.463084 -4.466744 2.391330 -0.017690 0.957270 -0.603970 0.349250 8.117215 3.334991 5.871366 38.185016 13.747901 5.064137 -160.822940 74.272859 -165.253096 1.197377 -2.654187 -0.422520 0.302520 0.043410 -0.233020 
1.050060 17.110000 -4.664840 -6.201711 17.370656 3.394326 -15.261360 12.671651 2.224634 2.275503 -1.039353 -9.125078 -4.317336 4.934992 12.529688 -0.987605 4.645926 3.396046 0.502270 0.091020 0.298040 18.386704 -10.270648 3.436767 -1.750838 4.746333 -30.615106 3.732378 -1.641965 0.443234 0.338855 -2.410905 3.644372 0.510660 0.916290 0.488570 -3.835263 -0.649774 -6.759706 7.422654 -0.450194 0.218265 6.426899 -3.143705 11.086087 0.881016 8.280683 -8.869223 14.286598 -6.299173 18.462437 -9.543280 -0.437810 2.252450 -9.529594 -11.145262 1.245943 -2.229366 -19.656316 8.669105 -79.784755 -81.396201 68.155988 -4.816002 2.890707 -0.006920 0.928820 -0.610530 0.349540 8.720531 3.932013 5.759030 36.537281 15.352109 6.616497 -136.912674 73.196932 -136.270713 1.490397 -2.400568 -0.427750 0.288640 0.040970 -0.222150 
1.050380 17.044610 -4.658940 -6.129125 16.201954 3.354458 -15.310783 12.745956 2.251167 2.126070 -0.903294 -8.271517 -4.547992 5.010933 12.081604 -0.920586 4.689486 3.380349 0.460600 0.041230 0.275660 18.347302 -10.092702 3.484944 -1.497509 4.770254 -30.321978 4.258359 -1.501796 -1.378435 0.327047 -2.400543 3.659872 0.455180 0.901750 0.486700 -3.681756 -1.059839 -6.845982 6.474875 -0.945479 0.644089 7.864398 -3.744408 10.671398 0.301366 7.933768 -8.795370 13.348306 -5.199627 19.883227 -9.221530 0.332780 2.559360 -8.378009 -12.085604 0.439616 -1.160609 -20.496423 6.944064 -50.508824 -75.605258 40.536067 -4.525196 3.672390 0.011190 0.907200 -0.595580 0.335570 8.782972 4.967318 6.252470 33.664591 17.422346 9.330517 -115.599577 71.445367 -107.885162 1.822723 -0.627520 -0.418170 0.267280 0.054300 -0.220890 
1.038910 17.009790 -4.656450 -5.970574 14.807889 3.156250 -15.353867 12.843801 2.311365 2.016726 -0.817284 -7.872885 -5.046467 5.253025 12.426088 -0.845500 4.714835 3.343462 0.440290 0.014930 0.277610 18.295673 -10.061549 3.470205 -0.716146 4.861984 -30.655763 4.205626 -1.668753 0.109998 0.312593 -2.222822 3.719544 0.390220 0.832190 0.459420 -3.527751 -1.296885 -6.888420 5.083883 -0.989100 1.638971 9.041840 -3.698937 9.798022 0.238877 8.024114 -8.640315 13.340228 -4.158742 21.718780 -7.766940 0.928490 1.459600 -5.779828 -12.173328 1.521332 -0.837922 -18.464053 6.517877 -53.672119 -71.497107 40.276390 -4.408712 3.677818 0.092490 0.815380 -0.528720 0.315480 6.434518 5.450294 4.447617 33.791910 18.197593 3.933793 -94.097946 81.481513 -81.689179 0.924888 4.781349 -0.401920 0.257230 0.051350 -0.227800 
1.048390 16.996850 -4.646910 -5.830453 13.978807 3.402638 -15.343674 12.834315 2.350451 1.285515 -0.828399 -8.357947 -4.707813 5.227010 13.094707 -0.827078 4.606046 3.353389 0.399810 -0.052880 0.300010 18.286984 -10.177465 3.496145 0.003605 5.086051 -31.584206 4.243763 -1.997328 2.738937 0.307551 -2.085017 3.757694 0.306400 0.760480 0.452260 -3.528069 -1.080811 -6.940836 4.553938 -0.750964 2.591390 9.691593 -3.119670 8.973423 0.496824 8.215073 -9.480490 13.875346 -3.807506 22.422968 -8.093970 1.875210 0.769270 -5.843987 -13.702674 3.881358 -1.189593 -13.710876 6.543266 -72.043644 -69.276629 52.143591 -4.412756 3.593204 0.170550 0.750050 -0.471990 0.274860 5.920082 7.522675 3.284112 30.203202 14.022493 -6.131535 121.400459 88.207663 123.808537 0.784036 0.540310 -0.393570 0.226520 0.060090 -0.257750 
1.054940 17.010730 -4.639900 -5.297683 14.923473 3.435685 -15.373042 12.982516 2.428839 0.143504 -1.058274 -9.960010 -3.591722 5.212720 15.591163 -0.794469 4.512950 3.332726 0.362860 -0.125340 0.326520 18.211593 -10.275696 3.475040 -0.440451 4.901284 -31.982399 4.781044 -2.515834 6.027229 0.281344 -2.052041 3.741008 0.211340 0.654000 0.449520 -3.407109 -1.235845 -7.010545 3.497363 -1.018686 3.703134 10.260673 -3.178824 9.115199 0.552563 8.663149 -10.779426 14.662225 -4.768425 24.015266 -8.323850 1.686050 0.258090 -5.333795 -14.698060 4.991288 -1.613909 -11.289824 6.456933 -85.445881 -64.915011 58.465908 -4.324618 3.561397 0.255900 0.655500 -0.398500 0.226560 5.037785 8.005822 4.554844 26.903380 11.775442 -4.794676 154.077296 89.519740 152.345291 1.220478 -1.574472 -0.366100 0.170420 0.064370 -0.285510 
1.067780 17.050480 -4.641440 -4.458023 15.290528 2.772382 -15.441403 13.237713 2.581733 -1.639350 -1.452196 -11.896597 -1.794672 5.178049 19.810378 -0.787908 4.610749 3.234820 0.367460 -0.156530 0.407100 18.091697 -10.309466 3.394078 -0.748634 4.545611 -31.275102 5.154160 -3.117520 9.375352 0.207004 -2.080743 3.702557 0.148200 0.536410 0.446430 -3.164688 -1.744580 -7.109326 2.861412 -1.367425 5.852804 10.065659 -3.263242 9.495076 0.914288 8.920214 -11.594777 14.834030 -5.412683 26.500090 -8.716200 1.735360 -2.886170 -7.097703 -14.978587 4.833022 0.859700 -9.387730 6.289947 -95.047952 -56.225068 57.992199 -4.179258 3.577889 0.403550 0.544260 -0.287150 0.174440 5.921843 7.592710 6.595060 20.648141 10.904137 2.228376 -122.383010 86.794947 -130.743113 2.031076 -1.484529 -0.359540 0.167980 0.064100 -0.337450 
